<?xml version="1.0" encoding="UTF-8"?>
<svg width="369.0694426971417" height="261.3600036621093" viewBox="0 0 350 247.8557981209066" class="looka-1j8o68f">
   <g id="SvgjsG1007" featurekey="T6b0uQ-0" transform="matrix(1.6068496704101562,0,0,1.6068496704101562,94.50084451183551,-0.040171241863087855)" fill="#ffffff">
      <g xmlns="http://www.w3.org/2000/svg">
         <g>
            <polygon points="93.661,100.025 6.534,100.025 10.854,92.389 88.252,92.389   " />
            <path d="M84.768,87.476l2.209,3.118H76.389L49.114,79.291l0,0L24.727,89.314l0.005,0.005l-3.1,1.274h-9.766l1.826-3.225    l7.487-0.366V70.464c5.553-4.562,20.442-6.608,27.792-6.519v0.022l0.413-0.017h0.048l0.425,0.017v-0.022    c6.792-0.084,20.891,1.784,26.99,5.925l0.137,17.288L84.768,87.476z M72.494,81.965v-9.426c0-0.318-0.154-0.604-0.418-0.813    c-0.253-0.211-0.611-0.336-1.006-0.336c-0.785,0-1.418,0.516-1.418,1.149v9.426c0,0.318,0.16,0.604,0.411,0.813    c0.258,0.204,0.611,0.334,1.007,0.334C71.86,83.112,72.494,82.599,72.494,81.965z M65.163,79.847v-10.2    c0-0.341-0.16-0.651-0.412-0.873c-0.256-0.229-0.61-0.365-1.005-0.365c-0.791,0-1.426,0.558-1.426,1.238v10.2    c0,0.347,0.156,0.657,0.42,0.878c0.251,0.229,0.611,0.365,1.006,0.365C64.527,81.092,65.163,80.534,65.163,79.847z M57.832,78.248    V68.052c0-0.341-0.155-0.654-0.418-0.881c-0.251-0.227-0.611-0.364-1.005-0.364c-0.784,0-1.42,0.557-1.42,1.246v10.196    c0,0.341,0.162,0.652,0.413,0.873c0.257,0.229,0.611,0.366,1.006,0.366C57.199,79.487,57.832,78.93,57.832,78.248z M50.502,77.441    v-9.743c0-0.327-0.162-0.628-0.413-0.844c-0.257-0.216-0.611-0.348-1.005-0.348c-0.79,0-1.423,0.534-1.423,1.191v9.743    c0,0.321,0.155,0.62,0.419,0.837c0.251,0.216,0.611,0.348,1.005,0.348C49.867,78.626,50.502,78.092,50.502,77.441z M43.171,78.398    v-10.2c0-0.347-0.155-0.657-0.419-0.877c-0.251-0.229-0.61-0.365-1.005-0.365c-0.784,0-1.418,0.556-1.418,1.244v10.199    c0,0.342,0.161,0.652,0.413,0.873c0.258,0.229,0.611,0.366,1.005,0.366C42.536,79.638,43.171,79.08,43.171,78.398z M35.84,79.847    v-10.2c0-0.341-0.162-0.651-0.414-0.873c-0.257-0.229-0.61-0.365-1.005-0.365c-0.79,0-1.424,0.558-1.424,1.238v10.2    c0,0.347,0.155,0.657,0.419,0.878c0.251,0.229,0.609,0.365,1.005,0.365C35.206,81.092,35.84,80.534,35.84,79.847z M28.509,81.965    v-9.426c0-0.318-0.157-0.604-0.419-0.813c-0.251-0.211-0.611-0.336-1.005-0.336c-0.784,0-1.418,0.516-1.418,1.149v9.426    c0,0.318,0.161,0.604,0.413,0.813c0.257,0.204,0.609,0.334,1.005,0.334C27.874,83.112,28.509,82.599,28.509,81.965z" />
            <path d="M79.269,66.278c0.498,1.467,0.323,2.664,0.113,3.327c-0.329-0.316-0.701-0.627-1.113-0.929    c-6.611-4.857-22.243-6.676-28.838-6.521c-0.019,0-0.03,0-0.048,0c-7.133-0.155-23.633,1.842-29.666,7.192    c0,0-0.774-1.487-0.162-3.064c1.173-1.022,2.824-1.991,4.925-2.884c7.409-3.154,18.94-4.639,24.662-4.53v0.012    c0.078-0.006,0.156-0.006,0.258-0.006c0.012,0,0.023,0,0.036,0c0.089,0,0.167,0,0.245,0.006V58.87    c4.787-0.091,14.674,0.963,22.379,3.652C75.264,63.641,77.694,64.904,79.269,66.278z" />
            <path d="M74.296,53.28c-5.021-5.613-18.856-8.071-25.476-7.87c-0.006,0-0.019,0-0.023,0c-6.081-0.173-20.223,2.006-25.441,7.848    c-0.006,0.012-0.019,0.016-0.024,0.028c-0.349-2.78,0.7-4.141,0.7-4.141c1.359-1.318,3.292-2.526,5.756-3.609    c6.512-2.849,14.788-3.974,18.81-3.878v0.019c0.065-0.006,0.125-0.012,0.215-0.012c0.012,0,0.024,0,0.03,0    c0.065,0,0.125,0.006,0.186,0.012v-0.019c3.944-0.095,12.184,1.005,18.701,3.83c2.872,1.246,5.033,2.664,6.408,4.212    C74.675,51.181,74.415,52.717,74.296,53.28z" />
            <path d="M73.098,54.641v6.343c-0.15-0.056-0.298-0.107-0.449-0.161c-1.711-0.598-3.53-1.113-5.373-1.562    c0.012-0.031,0.019-0.061,0.019-0.097v-5.027c0-0.341-0.502-0.609-1.118-0.609c-0.623,0-1.126,0.269-1.126,0.609v4.627    c-1.204-0.25-2.407-0.473-3.586-0.658c0.025-0.048,0.037-0.097,0.037-0.15v-5.47c0-0.364-0.502-0.665-1.119-0.665    c-0.622,0-1.125,0.301-1.125,0.665v5.291c-1.233-0.174-2.431-0.312-3.562-0.421c0.012-0.035,0.02-0.07,0.02-0.106v-5.821    c0-0.396-0.503-0.715-1.127-0.715c-0.615,0-1.119,0.319-1.119,0.715v5.756c-1.35-0.085-2.555-0.12-3.561-0.106    c0.012-0.032,0.012-0.063,0.012-0.093v-6.051c0-0.407-0.502-0.735-1.119-0.735c-0.622,0-1.126,0.328-1.126,0.735v6.051    c0,0.029,0.006,0.066,0.019,0.097c-1.065,0.018-2.262,0.084-3.561,0.187v-5.756c0-0.396-0.502-0.714-1.126-0.714    c-0.622,0-1.124,0.318-1.124,0.714v5.828c0,0.046,0.005,0.09,0.023,0.138c-1.143,0.125-2.339,0.281-3.566,0.466v-5.457    c0-0.365-0.503-0.664-1.125-0.664c-0.616,0-1.119,0.299-1.119,0.664v5.47c0,0.12,0.055,0.234,0.156,0.328    c-1.233,0.215-2.471,0.468-3.704,0.742v-4.89c0-0.341-0.502-0.609-1.119-0.609c-0.622,0-1.125,0.269-1.125,0.609v5.027    c0,0.133,0.078,0.258,0.216,0.354c-1.95,0.502-3.848,1.096-5.602,1.771v-7.07c4.722-4.913,17.361-7.121,23.532-7.018v0.019    c0.096-0.006,0.192-0.012,0.311-0.012h0.066l0.359,0.018v-0.023C55.547,47.105,68.754,49.487,73.098,54.641z" />
            <polygon points="71.674,90.594 26.36,90.594 49.048,81.258   " />
            <path d="M53.05,24.101c6.362,2.299,11.378,9.229,13.879,19.121c-6.025-2.292-13.669-3.496-18.031-3.351c-0.018,0-0.035,0-0.054,0    c-0.012,0-0.019,0-0.03,0c-3.777-0.126-11.616,0.851-18.21,3.399c2.214-10.162,7.463-17.361,14.225-19.402    C47.526,23.047,50.37,23.132,53.05,24.101z" />
            <path d="M52.602,13.73v8.343c-2.363-0.671-4.811-0.744-7.187-0.216v-7.905c0.496-0.449,1.024-0.796,1.568-1.024    c1.203-0.521,2.52-0.539,3.92-0.053C51.621,13.125,52.208,13.466,52.602,13.73z" />
            <path d="M48.838,0.025c0.389,0.946,1.119,3.722,1.34,11.419c-0.903-0.167-1.789-0.157-2.628,0.047    C47.503,5.172,48.258,1.331,48.838,0.025z" />
         </g>
      </g>
   </g>
   <g id="SvgjsG1008" featurekey="i9e7OP-0" transform="matrix(3.0370306968688965,0,0,3.0370306968688965,-1.9574666627331636,166.55631168372912)" fill="#ffffff">
      <path d="M10.800781 9.697266 q-0.546875 -0.78125 -0.986328 -1.108398 t-0.947266 -0.46875 t-1.064453 -0.141602 q-0.820312 0 -1.523437 0.366211 t-1.21582 0.996094 t-0.805664 1.464844 t-0.292969 1.772461 q0 0.947266 0.288086 1.782227 t0.795898 1.459961 t1.210938 0.991211 t1.542969 0.366211 q0.585938 0 1.09375 -0.19043 t0.922852 -0.50293 t0.727539 -0.717773 t0.488281 -0.844727 l3.144531 0.878906 q-0.302734 0.957031 -0.888672 1.772461 t-1.411133 1.411133 t-1.855469 0.9375 t-2.22168 0.341797 q-1.005859 0 -1.923828 -0.273437 t-1.713867 -0.771484 t-1.445312 -1.201172 t-1.108398 -1.557617 t-0.712891 -1.835937 t-0.253906 -2.045898 q0 -1.591797 0.556641 -2.983398 t1.523438 -2.431641 t2.270508 -1.640625 t2.807617 -0.600586 q1.201172 0 2.021484 0.297852 t1.806641 1.176758 l2.1875 0 l0 3.300781 l-3.017578 0 z M22.978515 20.263672 q-1.005859 0 -1.923828 -0.273437 t-1.713867 -0.771484 t-1.445312 -1.196289 t-1.108398 -1.552734 t-0.712891 -1.831055 t-0.253906 -2.041016 t0.253906 -2.045898 t0.712891 -1.835937 t1.108398 -1.552734 t1.445313 -1.196289 t1.713867 -0.771484 t1.923828 -0.273437 t1.928711 0.273438 t1.71875 0.771484 t1.445313 1.196289 t1.113281 1.552734 t0.717773 1.835938 t0.253906 2.045898 q0 1.054688 -0.253906 2.036133 t-0.717773 1.835938 t-1.113281 1.552734 t-1.445312 1.196289 t-1.71875 0.771484 t-1.928711 0.273438 z M22.978515 17.197266 q0.849609 0 1.557617 -0.366211 t1.21582 -0.996094 t0.786133 -1.464844 t0.27832 -1.772461 q0 -0.947266 -0.283203 -1.787109 t-0.795898 -1.469727 t-1.21582 -0.996094 t-1.542969 -0.366211 t-1.542969 0.366211 t-1.210937 0.996094 t-0.795898 1.469727 t-0.288086 1.787109 q0 0.9375 0.288086 1.772461 t0.795898 1.464844 t1.210938 0.996094 t1.542969 0.366211 z M41.455078 5.195313 l5.625 0 l0 2.685547 l-1.201172 0 l0 12.119141 l-3.242187 0 l-6.162109 -9.570312 l0 6.894531 l1.240234 0 l0 2.675781 l-5.615234 0 l0 -2.675781 l1.220703 0 l0 -9.443359 l-1.201172 0 l0 -2.685547 l4.472656 0 l6.123047 9.697266 l0 -7.011719 l-1.259766 0 l0 -2.685547 z M59.414063 20 l0 -2.539062 q-0.605469 1.064453 -1.181641 1.5625 t-1.303711 0.800781 t-1.948242 0.292969 q-0.605469 -0.009766 -1.210937 -0.141602 t-1.171875 -0.371094 t-1.108398 -0.576172 t-0.981445 -0.776367 q-1.083984 -1.09375 -1.68457 -2.53418 t-0.600586 -3.139648 q0 -1.044922 0.253906 -2.021484 t0.712891 -1.826172 t1.108398 -1.547852 t1.445313 -1.196289 t1.713867 -0.771484 t1.923828 -0.273437 q1.152344 0 2.001953 0.307617 t1.826172 1.147461 l2.1875 0 l0 3.300781 l-3.017578 0 q-0.449219 -0.693359 -0.844727 -1.005859 t-0.859375 -0.517578 t-1.293945 -0.205078 q-0.820312 0 -1.523437 0.371094 t-1.21582 1.000977 t-0.805664 1.484375 t-0.292969 1.75293 q0 0.888672 0.263672 1.689453 t0.800781 1.44043 t1.25 0.981445 t1.523438 0.341797 q1.035156 0 1.806641 -0.605469 t1.113281 -1.650391 l-2.822266 0 l0 -2.675781 l6.855469 0 l0 7.900391 l-2.919922 0 z M64.658204 5.195313 l7.832031 0 q1.142578 0 2.041016 0.341797 t1.513672 0.913086 t0.942383 1.328125 t0.327148 1.577148 q0 0.751953 -0.161133 1.318359 t-0.46875 1.005859 t-0.756836 0.776367 t-1.025391 0.610352 q0.498047 0.253906 0.878906 0.776367 t0.576172 1.352539 l0.498047 1.923828 l1.220703 0 l0.019531 2.880859 l-4.296875 0 l-0.585937 -3.515625 q-0.087891 -0.625 -0.268555 -1.079102 t-0.483398 -0.742187 t-0.737305 -0.424805 t-1.030273 -0.136719 l-1.259766 0 l0 3.222656 l1.357422 0 l0 2.675781 l-6.132812 0 l0 -2.675781 l1.533203 0 l0 -9.443359 l-1.533203 0 l0 -2.685547 z M69.433594 7.880859 l0 3.583984 l1.943359 0 q0.556641 0 1.000977 -0.102539 t0.761719 -0.322266 t0.488281 -0.551758 t0.170898 -0.791016 q0 -0.859375 -0.615234 -1.337891 t-1.806641 -0.478516 l-1.943359 0 z M79.59961 5.195313 l11.777344 0 l0 5.048828 l-3.183594 0 l0 -2.099609 l-3.798828 0 l0 2.919922 l2.939453 0 l0 2.832031 l-2.939453 0 l0 3.427734 l3.798828 0 l0 -2.626953 l3.183594 0 l0 5.302734 l-11.777344 0 l0 -2.675781 l1.552734 0 l0 -9.179687 l-1.552734 0 l0 -2.949219 z M100.195312 9.365234 q-0.048828 -0.341797 -0.239258 -0.644531 t-0.488281 -0.522461 t-0.673828 -0.34668 t-0.786133 -0.126953 q-0.371094 0 -0.693359 0.078125 t-0.561523 0.239258 t-0.380859 0.415039 t-0.141602 0.605469 q0 0.439453 0.19043 0.698242 t0.488281 0.424805 t0.65918 0.263672 t0.703125 0.214844 l2.685547 0.898438 q0.556641 0.195313 1.044922 0.537109 t0.844727 0.830078 t0.561523 1.123047 t0.205078 1.425781 q0 1.074219 -0.395508 1.962891 t-1.108398 1.523438 t-1.708984 0.986328 t-2.207031 0.351563 q-0.849609 0 -1.606445 -0.19043 t-1.381836 -0.551758 t-1.09375 -0.864258 t-0.732422 -1.137695 l-1.005859 0 l0 -2.939453 l3.535156 0 l0 0.605469 q0 0.439453 0.141602 0.810547 t0.424805 0.644531 t0.712891 0.424805 t1.005859 0.151367 q0.878906 0 1.337891 -0.405273 t0.458984 -1.12793 q0 -0.371094 -0.161133 -0.620117 t-0.415039 -0.419922 t-0.566406 -0.288086 t-0.615234 -0.214844 l-2.236328 -0.722656 q-0.634766 -0.195312 -1.225586 -0.546875 t-1.044922 -0.878906 t-0.722656 -1.235352 t-0.268555 -1.616211 q0 -1.054687 0.390625 -1.879883 t1.09375 -1.391602 t1.669922 -0.859375 t2.119141 -0.292969 q0.908203 0 1.679688 0.209961 t1.381836 0.561523 t1.035156 0.805664 t0.649414 0.942383 l0.976563 0 l0 2.949219 l-3.535156 0 l0 -0.859375 z M112.353515 9.365234 q-0.048828 -0.341797 -0.239258 -0.644531 t-0.488281 -0.522461 t-0.673828 -0.34668 t-0.786133 -0.126953 q-0.371094 0 -0.693359 0.078125 t-0.561523 0.239258 t-0.380859 0.415039 t-0.141602 0.605469 q0 0.439453 0.19043 0.698242 t0.488281 0.424805 t0.65918 0.263672 t0.703125 0.214844 l2.685547 0.898438 q0.556641 0.195313 1.044922 0.537109 t0.844727 0.830078 t0.561523 1.123047 t0.205078 1.425781 q0 1.074219 -0.395508 1.962891 t-1.108398 1.523438 t-1.708984 0.986328 t-2.207031 0.351563 q-0.849609 0 -1.606445 -0.19043 t-1.381836 -0.551758 t-1.09375 -0.864258 t-0.732422 -1.137695 l-1.005859 0 l0 -2.939453 l3.535156 0 l0 0.605469 q0 0.439453 0.141602 0.810547 t0.424805 0.644531 t0.712891 0.424805 t1.005859 0.151367 q0.878906 0 1.337891 -0.405273 t0.458984 -1.12793 q0 -0.371094 -0.161133 -0.620117 t-0.415039 -0.419922 t-0.566406 -0.288086 t-0.615234 -0.214844 l-2.236328 -0.722656 q-0.634766 -0.195312 -1.225586 -0.546875 t-1.044922 -0.878906 t-0.722656 -1.235352 t-0.268555 -1.616211 q0 -1.054687 0.390625 -1.879883 t1.09375 -1.391602 t1.669922 -0.859375 t2.119141 -0.292969 q0.908203 0 1.679688 0.209961 t1.381836 0.561523 t1.035156 0.805664 t0.649414 0.942383 l0.976563 0 l0 2.949219 l-3.535156 0 l0 -0.859375 z" />
   </g>
   <g id="SvgjsG1009" featurekey="9oQUJT-0" transform="matrix(0.6623519659042358,0,0,0.6623519659042358,34.49661187234934,234.3703111549982)" fill="#ffffff">
      <path d="M5.9 5.48 q2.58 0 3.96 1.66 l-1.38 1.2 q-0.8 -1.26 -2.58 -1.3 q-1.34 0 -2.18 0.64 t-0.84 1.74 q0 0.96 0.64 1.52 t2.4 1.1 q2.28 0.66 3.23 1.61 t0.95 2.57 q0 1.88 -1.4 3 t-3.58 1.14 q-1.46 0 -2.6 -0.52 t-1.76 -1.44 l1.44 -1.18 q0.46 0.76 1.28 1.17 t1.74 0.41 q1.26 0 2.17 -0.71 t0.91 -1.75 q0 -0.94 -0.53 -1.48 t-1.75 -0.92 l-1.62 -0.54 q-1.82 -0.62 -2.57 -1.55 t-0.75 -2.29 q0 -1.8 1.34 -2.93 t3.48 -1.15 z M25.444 5.84 l0 14.16 l-1.68 0 l0 -14.16 l1.68 0 z M42.348 5.84 l4.8 11.1 l0.04 0 l4.84 -11.1 l2.44 0 l0 14.16 l-1.68 0 l0 -11.88 l-0.04 0 l-5.08 11.88 l-1.02 0 l-5.08 -11.88 l-0.04 0 l0 11.88 l-1.68 0 l0 -14.16 l2.5 0 z M73.172 5.84 q2.28 0 3.55 0.98 t1.31 2.9 q0 1.86 -1.24 2.87 t-3.32 1.05 l-2.92 0 l0 6.36 l-1.68 0 l0 -14.16 l4.3 0 z M73.472 12.08 q1.28 0 2.02 -0.62 t0.74 -1.72 t-0.73 -1.72 t-2.03 -0.62 l-2.92 0 l0 4.68 l2.92 0 z M93.296 5.84 l0 12.6 l6.48 0 l0 1.56 l-8.16 0 l0 -14.16 l1.68 0 z M114.18 5.84 l0 14.16 l-1.68 0 l0 -14.16 l1.68 0 z M137.364 5.84 l0 1.56 l-7.1 0 l0 4.68 l6.6 0 l0 1.56 l-6.6 0 l0 6.36 l-1.68 0 l0 -14.16 l8.78 0 z M150.788 5.84 l3.98 6.4 l4.1 -6.4 l2.02 0 l-5.28 8.06 l0 6.1 l-1.68 0 l0 -6.1 l-5.28 -8.06 l2.14 0 z M191.476 5.84 l0 12.6 l6.48 0 l0 1.56 l-8.16 0 l0 -14.16 l1.68 0 z M219.58 5.84 l0 1.56 l-7.22 0 l0 4.44 l6.74 0 l0 1.56 l-6.74 0 l0 5.04 l7.58 0 l0 1.56 l-9.26 0 l0 -14.16 l8.9 0 z M240.224 5.48 q3.14 0 5 1.86 l-1.26 1.32 q-0.74 -0.78 -1.75 -1.2 t-2.11 -0.42 q-2.44 0 -4.05 1.68 t-1.65 4.2 q0.02 2.62 1.66 4.23 t4.2 1.65 q1.84 0 3.52 -0.82 l0 -4.34 l-3.26 0 l0 -1.56 l4.94 0 l0 6.96 q-2.44 1.32 -5.3 1.32 q-3.34 0 -5.43 -2.09 t-2.13 -5.35 q0.02 -3.26 2.16 -5.32 t5.46 -2.12 z M261.548 5.84 l0 14.16 l-1.68 0 l0 -14.16 l1.68 0 z M280.092 5.48 q2.58 0 3.96 1.66 l-1.38 1.2 q-0.8 -1.26 -2.58 -1.3 q-1.34 0 -2.18 0.64 t-0.84 1.74 q0 0.96 0.64 1.52 t2.4 1.1 q2.28 0.66 3.23 1.61 t0.95 2.57 q0 1.88 -1.4 3 t-3.58 1.14 q-1.46 0 -2.6 -0.52 t-1.76 -1.44 l1.44 -1.18 q0.46 0.76 1.28 1.17 t1.74 0.41 q1.26 0 2.17 -0.71 t0.91 -1.75 q0 -0.94 -0.53 -1.48 t-1.75 -0.92 l-1.62 -0.54 q-1.82 -0.62 -2.57 -1.55 t-0.75 -2.29 q0 -1.8 1.34 -2.93 t3.48 -1.15 z M299.636 5.84 l0 12.6 l6.48 0 l0 1.56 l-8.16 0 l0 -14.16 l1.68 0 z M325.02 5.84 l6.02 14.16 l-1.96 0 l-1.44 -3.48 l-7.08 0 l-1.46 3.48 l-1.9 0 l6.24 -14.16 l1.58 0 z M324.16 8 l-2.94 6.96 l5.78 0 l-2.8 -6.96 l-0.04 0 z M353.304 5.84 l0 1.56 l-4.68 0 l0 12.6 l-1.68 0 l0 -12.6 l-4.68 0 l0 -1.56 l11.04 0 z M367.788 5.84 l0 8.52 q0 2.16 0.92 3.28 t2.74 1.16 q1.82 -0.02 2.73 -1.15 t0.93 -3.21 l0 -8.6 l1.68 0 l0 8.82 q0 2.7 -1.4 4.19 t-3.94 1.51 q-2.5 0 -3.91 -1.51 t-1.43 -4.21 l0 -8.8 l1.68 0 z M394.992 5.84 q2.78 0 4.09 0.92 t1.31 2.96 q0 1.5 -0.89 2.47 t-2.65 1.29 l4.02 6.52 l-2.06 0 l-3.84 -6.36 l-2.16 0 l0 6.36 l-1.68 0 l0 -14.16 l3.86 0 z M394.812 12.08 q1.98 0 2.88 -0.55 t0.9 -1.79 q0 -1.2 -0.81 -1.77 t-2.51 -0.57 l-2.46 0 l0 4.68 l2 0 z M423.136 5.84 l0 1.56 l-7.22 0 l0 4.44 l6.74 0 l0 1.56 l-6.74 0 l0 5.04 l7.58 0 l0 1.56 l-9.26 0 l0 -14.16 l8.9 0 z" />
   </g>
</svg>
